<svg width="205" height="205" viewBox="0 0 205 205" fill="none" xmlns="http://www.w3.org/2000/svg">
<path d="M136.989 5.57422C136.358 10.0467 135.77 14.0002 135.192 17.5059C130.674 46.1722 129.147 50.6611 152.122 42.9678C146.556 44.8325 142.527 46.2273 139.579 47.5664C138.331 48.1329 138.166 49.7691 139.13 50.7426C152.154 63.8979 153.802 85.0164 146.872 103.66C137.446 129.021 119.754 150.431 97.8829 165.253C92.908 168.368 87.4131 171.302 81.6085 171.894C87.3601 170.981 92.5929 167.773 97.3077 164.405C117.973 148.509 133.734 126.183 141.902 102.003C147.671 85.7997 145.951 66.869 134.477 55.1674C133.555 54.2271 132.028 54.5538 131.697 55.8284C130.517 60.3629 130.526 67.3374 128.338 79.8271C132.687 54.8803 128.796 44.4429 107.668 51.0674C111.234 49.9278 114.271 48.9832 116.881 48.0284C118.527 47.4265 118.425 45.3232 116.706 44.9843C105.622 42.7988 93.1761 47.2 84.3331 55.6211C75.7648 63.4103 69.4449 73.7192 65.8721 84.5176C62.3474 95.0101 60.9608 108.979 68.4239 113.763C80.4427 121.491 99.6942 109.344 110.255 96.7637C113.867 92.3742 116.996 87.399 118.462 81.6572C118.385 87.6054 116.248 93.5297 113.262 98.8242C104.065 115.13 82.1701 132.315 63.9346 120.932C50.457 110.627 55.6034 93.0744 59.9913 82.2949C64.8999 70.2364 72.1023 60.0642 81.1964 51.7686C91.9016 41.2107 110.48 34.5379 125.637 41.3777C126.459 41.7486 127.445 41.587 127.989 40.8685C131.27 36.5414 133.173 29.7621 135.192 17.5059C135.758 13.9157 136.372 9.9464 136.989 5.57422Z" fill="#1C2329"/>
<path d="M128.338 79.8271C128.262 80.2609 128.184 80.6991 128.104 81.1416C128.185 80.6968 128.262 80.2587 128.338 79.8271Z" fill="#1C2329"/>
</svg>
