<svg width="205" height="205" viewBox="0 0 205 205" fill="none" xmlns="http://www.w3.org/2000/svg">
<path d="M152.262 19.2373C145.488 42.5133 148.063 52.856 168.823 48.7793C147.509 53.0869 145.526 52.5808 136.255 88.8545C143.718 59.6545 145.403 52.091 132.942 53.002C129.497 53.5198 126.093 54.6249 122.86 55.8359C99.8816 65.3863 79.8345 82.0755 66.3301 102.351C55.3681 118.243 53.0209 140.174 66.6914 154.118C70.5849 158.995 75.9003 162.009 81.7649 163.355C82.8465 163.603 83.9915 163.496 84.9828 162.998C91.1358 159.903 89.1978 155.616 93.3779 138.793C90.0665 152.12 90.0666 160.316 95.715 162.877C96.5706 163.265 97.5433 163.259 98.4549 163.032C101.732 162.215 104.941 160.974 107.948 159.334C117.772 154.269 126.146 146.327 132.107 137.254C137.949 128.451 142.678 115.914 136.98 109.66C127.808 99.5656 108.643 104.689 94.2139 114.999C89.7991 118.154 85.6851 121.968 82.9151 126.899C84.455 121.434 87.8891 116.5 91.9502 112.356C104.457 99.5957 128.889 89.1602 142.889 104.16C152.769 116.99 143.688 131.902 136.98 140.756C129.475 150.66 120.322 158.259 109.889 163.66C105.272 166.283 99.7923 168.149 94.0985 168.951C92.6233 169.158 91.1997 169.796 90.3812 171.04C88.2713 174.249 86.7054 179.111 84.8809 187.019C84.2748 189.731 83.6141 192.731 82.9307 196.038C83.6297 192.655 84.27 189.666 84.8809 187.019C85.9582 182.197 86.8638 178.283 87.4236 175.163C87.9962 171.972 85.4339 169.447 82.2248 168.987C79.2758 168.565 76.3896 167.798 73.6563 166.644C73.5043 166.683 73.3502 166.723 73.1953 166.764C73.3488 166.723 73.5009 166.682 73.6514 166.642C69.3322 164.817 65.3946 162.027 62.1992 158.097C46.3688 142.255 49.9734 115.583 62.1582 99.5957C77.1141 78.5426 98.714 63.174 122.539 54.9121C123.33 54.6695 124.131 54.4344 124.938 54.2109C123.542 54.4866 122.049 54.8011 120.454 55.1465C145.389 49.7405 144.098 47.117 151.815 20.7461L152.262 19.2373Z" fill="white"/>
<path d="M152.262 19.2373C145.488 42.5133 148.063 52.856 168.823 48.7793C147.509 53.0869 145.526 52.5808 136.255 88.8545C143.718 59.6545 145.403 52.091 132.942 53.002C129.497 53.5198 126.093 54.6249 122.86 55.8359C99.8816 65.3863 79.8345 82.0755 66.3301 102.351C55.3681 118.243 53.0209 140.174 66.6914 154.118C70.5849 158.995 75.9003 162.009 81.7649 163.355C82.8465 163.603 83.9915 163.496 84.9828 162.998C91.1358 159.903 89.1978 155.616 93.3779 138.793C90.0665 152.12 90.0666 160.316 95.715 162.877C96.5706 163.265 97.5433 163.259 98.4549 163.032C101.732 162.215 104.941 160.974 107.948 159.334C117.772 154.269 126.146 146.327 132.107 137.254C137.949 128.451 142.678 115.914 136.98 109.66C127.808 99.5656 108.643 104.689 94.2139 114.999C89.7991 118.154 85.6851 121.968 82.9151 126.899C84.455 121.434 87.8891 116.5 91.9502 112.356C104.457 99.5957 128.889 89.1602 142.889 104.16C152.769 116.99 143.688 131.902 136.98 140.756C129.475 150.66 120.322 158.259 109.889 163.66C105.272 166.283 99.7923 168.149 94.0985 168.951C92.6233 169.158 91.1997 169.796 90.3812 171.04C88.2713 174.249 86.7054 179.111 84.8809 187.019C84.2748 189.731 83.6141 192.731 82.9307 196.038C83.6297 192.655 84.27 189.666 84.8809 187.019C85.9582 182.197 86.8638 178.283 87.4236 175.163C87.9962 171.972 85.4339 169.447 82.2248 168.987C79.2758 168.565 76.3896 167.798 73.6563 166.644C73.5043 166.683 73.3502 166.723 73.1953 166.764C73.3488 166.723 73.5009 166.682 73.6514 166.642C69.3322 164.817 65.3946 162.027 62.1992 158.097C46.3688 142.255 49.9734 115.583 62.1582 99.5957C77.1141 78.5426 98.714 63.174 122.539 54.9121C123.33 54.6695 124.131 54.4344 124.938 54.2109C123.542 54.4866 122.049 54.8011 120.454 55.1465C145.389 49.7405 144.098 47.117 151.815 20.7461L152.262 19.2373Z" fill="url(#paint0_linear_2576_339)"/>
<defs>
<linearGradient id="paint0_linear_2576_339" x1="126.823" y1="181.331" x2="31.5557" y2="63.0499" gradientUnits="userSpaceOnUse">
<stop stop-color="#C5C9CB"/>
<stop offset="0.490351" stop-color="#4E6676"/>
<stop offset="1"/>
</linearGradient>
</defs>
</svg>
